<?xml version="1.0" encoding="UTF-8"?>
<svg id="Layer_1" data-name="Layer 1" xmlns="http://www.w3.org/2000/svg" viewBox="0 0 302 302">
  <defs>
    <style>
      .cls-1 {
        fill: #b00032;
      }
    </style>
  </defs>
  <path class="cls-1" d="M282.39,0H19.61C8.78,0,0,8.78,0,19.61V282.39c0,10.83,8.78,19.61,19.61,19.61H282.39c10.83,0,19.61-8.78,19.61-19.61V19.61c0-10.831-8.78-19.61-19.61-19.61Zm-1.068,46.601l-8.753,23.406c-1.258,3.331-4.037,5.834-7.447,6.73l-48.881,12.95-59.203,158.298c-.032,.086-.074,.166-.108,.251l-5.573,14.832c-1.328,3.537-4.46,6.173-8.173,6.879-.668,.127-1.342,.189-2.012,.189-3.055,0-6.038-1.289-8.117-3.586L22.809,144.914c-2.755-3.038-3.573-7.314-2.131-11.157l4.106-10.928c.029-.083,.044-.169,.075-.252l8.758-23.419c1.254-3.321,4.024-5.821,7.421-6.722l227.276-60.211c3.961-1.048,8.131,.185,10.882,3.226,2.751,3.04,3.565,7.312,2.125,11.151Z"/>
  <polygon class="cls-1" points="130.653 198.827 166.548 102.851 67.457 129.103 130.653 198.827"/>
</svg>